<svg xmlns="http://www.w3.org/2000/svg" viewBox="0 0 32 32" width="32" height="32">
  <rect width="32" height="32" rx="16" fill="#E60023"/>
  <path d="M16 8c-4.418 0-8 3.134-8 7.001 0 2.93 2.13 5.399 5.13 5.399.21 0 .42-.02.63-.06.2-.04.41-.13.57-.27.16-.14.28-.33.32-.54.04-.21.01-.43-.09-.62-.09-.19-.23-.34-.41-.43-.18-.09-.39-.13-.6-.09-1.13.22-2.13-.44-2.13-1.57 0-1.13 1.01-2.05 2.13-2.27 1.13-.22 2.13.44 2.13 1.57 0 .21-.03.42-.09.62-.06.2-.18.39-.34.53-.16.14-.37.23-.58.27-.21.04-.43.01-.62-.09-.19-.09-.34-.23-.43-.41-.09-.18-.13-.39-.09-.6.22-1.13-.44-2.13-1.57-2.13z" fill="#fff"/>
</svg>
